<?xml version="1.0" encoding="utf-8"?>
<!-- Generator: Adobe Illustrator 15.0.2, SVG Export Plug-In . SVG Version: 6.00 Build 0)  -->
<!DOCTYPE svg PUBLIC "-//W3C//DTD SVG 1.1//EN" "http://www.w3.org/Graphics/SVG/1.1/DTD/svg11.dtd">
<svg version="1.1" id="Layer_1" xmlns="http://www.w3.org/2000/svg" xmlns:xlink="http://www.w3.org/1999/xlink" x="0px" y="0px"
	 width="250px" height="250px" viewBox="0 0 250 250" enable-background="new 0 0 250 250" xml:space="preserve">
<radialGradient id="SVGID_1_" cx="271" cy="-82" r="157.623" gradientTransform="matrix(1 0 0 -1 -181 -20)" gradientUnits="userSpaceOnUse">
	<stop  offset="0" style="stop-color:#80CAF0"/>
	<stop  offset="1" style="stop-color:#0A5072"/>
</radialGradient>
<rect fill="url(#SVGID_1_)" width="250" height="250"/>
<path opacity="0.15" enable-background="new    " d="M216.486,72.1c-11.891-0.924-24.277-1.393-36.814-1.393
	c-29.316,0-60.662,2.553-93.258,7.596c-7.064,0.47-14.188,6.551-15.554,13.278c-9.899,48.541-13.683,100.034-11.563,157.381h146.717
	c0.014-3.03,0.053-6.069,0.109-9.116c0.411,3.25,0.74,6.622,0.953,10.154H218.1c-0.742-13.279-2.904-24.836-5.865-34.746
	c-1.322-4.426-2.803-8.521-4.377-12.307c2.748-37.055,8.582-75.496,17.656-116.381C227.012,79.789,222.966,73.313,216.486,72.1z"/>
<g>
	<polygon points="65.101,177.543 63.327,174.962 65.082,177.557 	"/>
	<polygon points="65.082,177.557 63.327,174.962 63.313,174.941 	"/>
	<path d="M70.082,177.557l-1.77-2.615l0.015,0.021l-4.409-6.518c-0.455,0.311-9.531,6.539-18.665,20.699
		c-4.564,7.076-9.133,16.133-12.616,27.367c-2.961,9.551-5.121,20.689-5.865,33.488h11.024c0.728-11.652,2.7-21.688,5.349-30.23
		c4.76-15.348,11.646-25.979,17.275-32.762c2.814-3.389,5.315-5.81,7.07-7.355c0.877-0.771,1.568-1.325,2.019-1.672
		c0.226-0.172,0.39-0.293,0.487-0.363l0.096-0.067l0.009-0.006L70.082,177.557z"/>
</g>
<path fill="#1E1E1E" d="M45.166,192.333c0,0-14.999,26.333-15.332,49c0,0,7.333-33.833,18.5-46.833L45.166,192.333z"/>
<g>
	<polygon points="173.771,177.543 175.545,174.962 173.791,177.557 	"/>
	<polygon points="173.791,177.557 175.545,174.962 175.559,174.941 	"/>
	<path d="M168.791,177.557l1.768-2.615l-0.014,0.021l4.408-6.518c0.457,0.311,9.531,6.539,18.666,20.699
		c4.564,7.076,9.133,16.133,12.615,27.367c2.961,9.551,5.123,20.689,5.865,33.488h-11.023c-0.727-11.652-2.7-21.688-5.348-30.23
		c-4.762-15.348-11.647-25.979-17.277-32.762c-2.814-3.389-5.314-5.81-7.069-7.355c-0.878-0.771-1.569-1.325-2.019-1.672
		c-0.225-0.172-0.391-0.293-0.488-0.363l-0.096-0.067l-0.008-0.006L168.791,177.557z"/>
</g>
<radialGradient id="SVGID_2_" cx="251.6689" cy="-81.7612" r="173.0961" gradientTransform="matrix(1 0 0 -1 -181 -20)" gradientUnits="userSpaceOnUse">
	<stop  offset="0" style="stop-color:#EEEEEE"/>
	<stop  offset="0.5107" style="stop-color:#ECECEC"/>
	<stop  offset="0.7743" style="stop-color:#E4E4E4"/>
	<stop  offset="0.9811" style="stop-color:#D7D7D7"/>
	<stop  offset="1" style="stop-color:#D5D5D5"/>
</radialGradient>
<path fill="url(#SVGID_2_)" d="M217.48,59.876c1.649-8.345-2.823-16.535-10.238-18.048c-43.729-3.81-89.586-0.773-135.742,7.225
	c-7.859,0.584-15.605,7.98-17.115,16.297C43.278,126.282,40.258,188.146,42.354,250H197.18
	C197.365,186.243,205.053,122.529,217.48,59.876z"/>
<radialGradient id="SVGID_3_" cx="254.4355" cy="-82.5557" r="171.33" gradientTransform="matrix(0.9885 0 0 -1 -180.5035 -20)" gradientUnits="userSpaceOnUse">
	<stop  offset="0" style="stop-color:#FAFAFA"/>
	<stop  offset="0.5107" style="stop-color:#F8F8F8"/>
	<stop  offset="0.7743" style="stop-color:#F0F0F0"/>
	<stop  offset="0.9811" style="stop-color:#E3E3E3"/>
	<stop  offset="1" style="stop-color:#E1E1E1"/>
</radialGradient>
<path fill="url(#SVGID_3_)" d="M43.314,249c-2.184-66.854,1.713-126.883,11.908-183.471c1.408-7.844,8.744-14.932,16.02-15.48
	c33.572-5.879,65.855-8.854,96.048-8.854c12.913,0,25.671,0.546,37.918,1.623c6.672,1.414,10.839,8.964,9.296,16.863
	C201.234,127.354,194.663,189.295,194.42,249H43.314z"/>
<radialGradient id="SVGID_4_" cx="257.8066" cy="-88.9229" r="194.9799" gradientTransform="matrix(1 0 0 -1 -181 -20)" gradientUnits="userSpaceOnUse">
	<stop  offset="0" style="stop-color:#FAFAFA"/>
	<stop  offset="0.5107" style="stop-color:#F8F8F8"/>
	<stop  offset="0.7743" style="stop-color:#F0F0F0"/>
	<stop  offset="0.9811" style="stop-color:#E3E3E3"/>
	<stop  offset="1" style="stop-color:#E1E1E1"/>
</radialGradient>
<path fill="url(#SVGID_4_)" d="M206.941,43.855c-8.211-0.713-16.664-1.169-25.227-1.41L44.113,188.049
	c-0.385,14.434-0.439,29.17-0.17,44.252L214.85,51.189C213.468,47.481,210.629,44.65,206.941,43.855z"/>
<radialGradient id="SVGID_5_" cx="257.8076" cy="-88.9219" r="194.9794" gradientTransform="matrix(1 0 0 -1 -181 -20)" gradientUnits="userSpaceOnUse">
	<stop  offset="0" style="stop-color:#FAFAFA"/>
	<stop  offset="0.5107" style="stop-color:#F8F8F8"/>
	<stop  offset="0.7743" style="stop-color:#F0F0F0"/>
	<stop  offset="0.9811" style="stop-color:#E3E3E3"/>
	<stop  offset="1" style="stop-color:#E1E1E1"/>
</radialGradient>
<path fill="url(#SVGID_5_)" d="M207.715,102.698L71.308,247.954h26.646l105.495-116.246
	C204.723,122.141,206.143,112.476,207.715,102.698z"/>
<path fill="#C4C4C4" d="M55.139,65.486c1.441-7.938,8.961-15.113,16.492-15.678c33.879-5.87,66.551-8.846,97.105-8.846
	c13.092,0,26.023,0.547,38.353,1.617c6.906,1.408,11.231,9.102,9.642,17.146c-13.472,67.9-20.203,130.677-20.35,190.273h1.534
	c0.146-59.497,6.87-122.174,20.319-189.975c1.754-8.871-3.108-17.372-10.926-18.962c-12.459-1.085-25.437-1.636-38.572-1.636
	c-30.644,0-63.402,2.984-97.293,8.859c-8.24,0.613-16.23,8.206-17.814,16.926C43.297,121.902,39.318,182.736,41.59,250h1.535
	C40.854,182.826,44.824,122.083,55.139,65.486z"/>
<g>
	
		<linearGradient id="SVGID_6_" gradientUnits="userSpaceOnUse" x1="299.6611" y1="-251.6387" x2="297.0203" y2="-210.5174" gradientTransform="matrix(1 0 0 -1 -181 -20)">
		<stop  offset="0" style="stop-color:#000000"/>
		<stop  offset="1" style="stop-color:#000000"/>
	</linearGradient>
	<path fill="url(#SVGID_6_)" d="M156.337,226.715c1.812-4.146,2.707-8.382,2.708-12.617c-0.003-5.293-1.745-9-5.314-11.395
		c-3.57-2.404-7.907-2.828-13.043-1.589c-4.787,1.153-9.138,3.213-12.983,6.354c-3.855,3.134-7.095,7.339-9.713,12.774
		c-0.232-12.151,2.609-21.182,8.489-27.913c5.875-6.772,14.267-12.263,24.549-15.957c0.224-1.149,0.354-1.233,0.576-2.388
		c-22.088,8.188-46.104,8.748-68.187,1.686c0.194,1.098,0.631,1.541,0.825,2.641c7.652,2.9,13.729,6.26,18.48,9.642
		c4.76,3.378,8.254,7.356,10.426,12.335c2.178,4.967,3.297,11.596,3.357,19.96c-2.85-5.3-6.113-9.435-9.795-12.519
		c-3.676-3.09-7.76-5.017-12.207-5.959c-5.252-1.115-9.623-0.664-13.169,1.646c-3.54,2.303-5.267,5.979-5.271,11.339
		c0.002,3.847,1.002,8.084,3.037,12.638c2.041,4.527,6.867,11.879,14.76,20.873c0.52,0.59,1.028,1.166,1.528,1.733h44.109
		c1.417-1.534,2.94-3.183,4.601-4.985C149.827,238.755,153.859,232.449,156.337,226.715z"/>
	<path fill="#1F1D1E" d="M114.958,199.327c0.021,0.047,0.046,0.091,0.066,0.139c0.917,2.091,1.651,4.418,2.208,7.011
		c1.407-6.082,3.963-11.207,7.702-15.486c3.599-4.149,8.126-7.84,13.384-10.941c-2.024,0.452-4.062,0.842-6.104,1.176
		L114.958,199.327z"/>
	<path fill="#1F1D1E" d="M128.994,209.057c-3.699,3.006-6.695,6.955-9.161,12.074l-2.587-0.564l-2.541,0.649
		c-2.676-4.978-5.807-8.987-9.309-11.92c-0.055-0.047-0.113-0.088-0.168-0.134l-20.326,24.26c2.253,3.404,5.596,7.906,10.496,13.491
		c0.656,0.744,1.293,1.468,1.922,2.183l38.726-44.307C133.492,205.878,131.157,207.29,128.994,209.057z"/>
</g>
<rect x="65.554" y="156.902" fill="none" width="106.396" height="93.098"/>
<path fill="#EAEAEA" d="M129.51,93.041c0.377,9.912,6.514,16.441,13.771,16.165c7.256-0.275,12.884-7.251,12.507-17.161
	c-0.375-9.912-7.892-18.957-15.149-18.681C133.379,73.639,129.135,83.131,129.51,93.041z"/>
<path fill="#FFFFFF" d="M128.486,89.631c0.377,9.911,6.514,16.441,13.771,16.165c7.255-0.275,12.884-7.251,12.507-17.162
	c-0.375-9.911-7.893-18.956-15.148-18.68C132.355,70.229,128.111,79.721,128.486,89.631z"/>
<path fill="#EAEAEA" d="M152.355,88.662c-0.24-6.395-3.963-12.683-8.404-15.273c2.816,3.162,4.854,7.786,5.029,12.461
	c0.16,4.199-0.887,8.02-2.941,10.757c-1.891,2.515-4.518,3.962-7.402,4.07c-0.117,0.005-0.236,0.007-0.354,0.007
	c-1.521,0-2.949-0.365-4.245-1.038c1.959,2.419,4.611,3.852,7.621,3.852c0.119,0,0.236-0.003,0.355-0.007
	c2.885-0.109,5.512-1.555,7.401-4.07C151.471,96.684,152.516,92.861,152.355,88.662z"/>
<path fill="#EAEAEA" d="M112.241,94.152c-1.317,9.83-8.048,15.746-15.245,14.781c-7.197-0.963-12.136-8.442-10.818-18.272
	c1.314-9.831,9.658-18.12,16.855-17.155C110.234,74.469,113.557,84.32,112.241,94.152z"/>
<path fill="#FFFFFF" d="M111.219,90.742c-1.318,9.83-8.048,15.746-15.246,14.781c-7.196-0.963-12.135-8.442-10.817-18.272
	c1.314-9.831,9.657-18.12,16.854-17.155C109.211,71.059,112.534,80.91,111.219,90.742z"/>
<path fill="#EAEAEA" d="M107.548,77.945c-0.95-2.311-2.755-5.146-5.956-5.607c0.904,1.029,1.563,2.252,2.018,3.357
	c1.406,3.422,1.865,7.977,1.261,12.494c-1.021,7.614-5.743,12.932-11.485,12.932c-0.407,0-0.82-0.027-1.23-0.082
	c-0.414-0.056-0.816-0.146-1.213-0.256c1.448,1.37,3.208,2.246,5.152,2.506c0.408,0.056,0.822,0.084,1.229,0.084
	c5.742,0,10.466-5.318,11.485-12.932C109.414,85.922,108.954,81.367,107.548,77.945z"/>
<g>
	<circle cx="143.352" cy="88.642" r="8.058"/>
	
		<linearGradient id="SVGID_7_" gradientUnits="userSpaceOnUse" x1="334.8828" y1="-117.0259" x2="326.9601" y2="-110.6529" gradientTransform="matrix(1 0 0 -1 -181 -20)">
		<stop  offset="0" style="stop-color:#A5A5A5"/>
		<stop  offset="1" style="stop-color:#231F20"/>
	</linearGradient>
	<path fill="url(#SVGID_7_)" d="M147.256,82.835c0.776,1.009,1.29,2.237,1.411,3.597c0.343,3.809-2.481,7.185-6.292,7.525
		c-1.643,0.148-3.203-0.298-4.479-1.152c1.397,1.82,3.666,2.913,6.117,2.695c3.809-0.342,6.631-3.719,6.291-7.527
		C150.109,85.807,148.938,83.963,147.256,82.835z"/>
	<circle fill="#FFFFFF" cx="138.854" cy="83.557" r="3.08"/>
</g>
<g>
	<circle cx="102.088" cy="88.982" r="8.057"/>
	
		<linearGradient id="SVGID_8_" gradientUnits="userSpaceOnUse" x1="293.6211" y1="-117.3652" x2="285.6978" y2="-110.9918" gradientTransform="matrix(1 0 0 -1 -181 -20)">
		<stop  offset="0" style="stop-color:#A5A5A5"/>
		<stop  offset="1" style="stop-color:#231F20"/>
	</linearGradient>
	<path fill="url(#SVGID_8_)" d="M105.994,83.176c0.776,1.009,1.289,2.236,1.409,3.596c0.344,3.811-2.479,7.186-6.29,7.526
		c-1.643,0.147-3.204-0.298-4.478-1.153c1.397,1.82,3.665,2.914,6.116,2.695c3.809-0.341,6.632-3.719,6.291-7.527
		C108.848,86.148,107.675,84.303,105.994,83.176z"/>
	<circle fill="#FFFFFF" cx="97.592" cy="83.897" r="3.081"/>
</g>
<path fill="#BCBCBC" d="M129.087,89.579c0.192,4.003,1.39,7.984,3.878,11.028c1.232,1.51,2.779,2.761,4.543,3.527
	c1.768,0.764,3.702,1.06,5.637,0.838c1.889-0.204,3.742-0.963,5.282-2.132c1.558-1.159,2.804-2.729,3.724-4.466
	c1.841-3.5,2.367-7.655,1.916-11.613c-0.494-3.967-2.103-7.816-4.598-10.957c-1.252-1.563-2.738-2.953-4.449-3.971
	c-1.701-1.021-3.668-1.641-5.636-1.48c-1.948,0.127-3.788,1.061-5.19,2.441c-1.418,1.376-2.479,3.117-3.242,4.966
	c-1.521,3.718-2.044,7.818-1.862,11.83L129.087,89.579z M127.887,89.636c-0.099-4.168,0.526-8.39,2.197-12.246
	c0.85-1.911,1.959-3.751,3.512-5.221c1.526-1.476,3.573-2.501,5.742-2.619c2.146-0.132,4.271,0.53,6.096,1.574
	c1.832,1.056,3.408,2.493,4.74,4.108c2.652,3.246,4.383,7.225,4.965,11.389c0.526,4.151,0.065,8.512-1.863,12.336
	c-0.967,1.895-2.303,3.641-4.021,4.965c-1.709,1.332-3.765,2.227-5.956,2.498c-2.137,0.298-4.402-0.037-6.387-0.936
	c-1.997-0.887-3.715-2.307-5.059-3.979c-2.701-3.382-3.838-7.708-3.965-11.857L127.887,89.636z"/>
<path fill="#BCBCBC" d="M111.945,90.822l-0.001,0.008c-0.541,4.146-2.127,8.352-5.166,11.458c-1.51,1.539-3.373,2.774-5.453,3.456
	c-2.068,0.696-4.356,0.791-6.452,0.297c-2.155-0.48-4.114-1.567-5.686-3.057c-1.581-1.481-2.743-3.346-3.521-5.322
	c-1.551-3.988-1.593-8.368-0.667-12.443c0.979-4.085,3.091-7.859,6.015-10.85c1.472-1.484,3.171-2.771,5.092-3.653
	c1.908-0.872,4.086-1.341,6.214-1.003c2.154,0.32,4.083,1.545,5.49,3.141c1.423,1.602,2.383,3.535,3.063,5.523
	C112.214,82.381,112.438,86.665,111.945,90.822z M110.478,90.622c0.564-3.958,0.436-8.064-0.679-11.902
	c-0.57-1.907-1.429-3.745-2.69-5.261c-1.239-1.524-2.992-2.62-4.914-2.937c-1.94-0.343-3.957,0.074-5.752,0.922
	c-1.806,0.844-3.424,2.082-4.827,3.515c-2.807,2.879-4.762,6.58-5.626,10.486c-0.819,3.905-0.688,8.096,0.818,11.758
	c0.754,1.818,1.849,3.499,3.291,4.802c1.425,1.31,3.201,2.239,5.063,2.62c1.906,0.407,3.864,0.289,5.685-0.322
	c1.82-0.609,3.468-1.711,4.818-3.104C108.389,98.397,109.941,94.563,110.478,90.622z"/>
<path d="M87.234,54.32c1.158-2.818,2.9-5.307,4.879-7.592c2.005-2.265,4.328-4.301,7.014-5.895c2.666-1.584,5.785-2.736,9.068-2.748
	c3.272-0.022,6.528,1.371,8.439,3.75c-2.867-1.039-5.608-1.275-8.181-0.742c-2.577,0.518-5.015,1.654-7.376,3.045
	c-2.357,1.396-4.639,3.044-6.906,4.783L87.234,54.32z"/>
<path d="M161.338,50.696l-6.939-5.399c-2.27-1.738-4.549-3.388-6.905-4.783c-2.36-1.39-4.802-2.527-7.376-3.045
	c-2.571-0.532-5.313-0.295-8.18,0.742c1.91-2.379,5.166-3.772,8.437-3.75c3.285,0.012,6.407,1.165,9.069,2.747
	c2.687,1.596,5.011,3.632,7.015,5.896C158.434,45.391,160.18,47.877,161.338,50.696z"/>
<linearGradient id="SVGID_9_" gradientUnits="userSpaceOnUse" x1="305.0381" y1="-186.1108" x2="305.0381" y2="-158.7965" gradientTransform="matrix(1 0 0 -1 -181 -20)">
	<stop  offset="0" style="stop-color:#3E0002"/>
	<stop  offset="0.3837" style="stop-color:#3A0002"/>
	<stop  offset="0.7732" style="stop-color:#2E0101"/>
	<stop  offset="1" style="stop-color:#230200"/>
</linearGradient>
<path fill="url(#SVGID_9_)" d="M101.314,131.693c0,0,4.145,11.604,3.316,20.857c0,0,14.504,10.223,29.699-1.107
	c0,0,11.466-6.902,12.433-29.56C146.764,121.885,128.805,137.771,101.314,131.693z"/>
<linearGradient id="SVGID_10_" gradientUnits="userSpaceOnUse" x1="309.5684" y1="-168.4927" x2="304.7594" y2="-170.3168" gradientTransform="matrix(1 0 0 -1 -181 -20)">
	<stop  offset="0" style="stop-color:#EAEAEA"/>
	<stop  offset="1" style="stop-color:#FFFFFF"/>
</linearGradient>
<path fill="url(#SVGID_10_)" d="M104.631,152.552c0,0,0.139-2.127,2.186-2.127c0,0,10.866,6.132,27.514,1.021
	C134.33,151.443,122.223,162.863,104.631,152.552z"/>
<linearGradient id="SVGID_11_" gradientUnits="userSpaceOnUse" x1="322.2344" y1="-146.6626" x2="314.669" y2="-149.5323" gradientTransform="matrix(1 0 0 -1 -181 -20)">
	<stop  offset="0" style="stop-color:#EAEAEA"/>
	<stop  offset="1" style="stop-color:#FFFFFF"/>
</linearGradient>
<path fill="url(#SVGID_11_)" d="M103.406,132.01c0,0,2.046,7.674,3.922,8.186c1.875,0.512,24.654,4.481,35.845-8.088l3.728-4.42
	l0.142-4.975C147.041,122.713,132.83,134.357,103.406,132.01z"/>
<path fill="#C4C4C4" d="M145.529,122.115c-3.652,2.779-7.723,4.986-12.033,6.546c-4.516,1.659-9.289,2.573-14.098,2.959
	c-4.813,0.397-9.68,0.222-14.488-0.399c-4.815-0.65-9.539-1.687-14.37-2.658c4.405,2.291,9.292,3.396,14.169,4.117
	c4.889,0.713,9.859,0.981,14.816,0.658c4.953-0.334,9.882-1.324,14.573-3.033c4.221-1.551,8.219-3.748,11.766-6.51
	c0.207,5.139-0.854,10.425-2.959,15.145c-1.154,2.584-2.653,5.012-4.456,7.195c-0.896,1.098-1.873,2.126-2.904,3.096
	c-1.037,1.006-2.108,1.832-3.303,2.612c-4.72,3.093-10.494,4.582-16.142,4.009c-5.695-0.526-10.951-3.063-15.981-5.925
	c4.358,3.862,9.964,6.419,15.86,7.085c5.898,0.699,12.014-0.763,17.045-3.943c1.252-0.775,2.481-1.735,3.533-2.743
	c1.086-1.009,2.115-2.076,3.063-3.22c1.9-2.278,3.49-4.816,4.718-7.519c1.239-2.698,2.073-5.571,2.576-8.489
	c0.419-2.553,0.601-5.113,0.438-7.727L145.529,122.115z"/>
<path fill="#C4C4C4" d="M142.313,116.256c0.734,1.113,1.502,2.135,2.318,3.092c0.831,0.944,1.706,1.823,2.684,2.566
	c0.965,0.765,2.021,1.389,3.151,1.912c1.134,0.518,2.347,0.904,3.636,1.271c-1.315,0.258-2.701,0.184-4.025-0.168
	c-1.332-0.341-2.583-0.994-3.68-1.834c-1.082-0.859-2.013-1.896-2.707-3.065C142.991,118.869,142.467,117.594,142.313,116.256z"/>
<path fill="#C4C4C4" d="M100.355,131.723l0.039,0.094c0.414,0.931,3.791,8.961,3.781,16.271c0,1.342-0.113,2.658-0.371,3.896
	l1.316,0.985c0.283-1.36,0.553-3.456,0.555-4.883c-0.002-4.134-0.994-8.358-1.978-11.565c-0.984-3.207-1.968-5.394-1.976-5.414
	L100.355,131.723z"/>
<path fill="#BCBCBC" d="M125.121,106.451c-1.952-0.086-3.891-0.068-5.836,0.023l-5.827,0.229c-1.93,0.115-3.871,0.201-5.715,0.549
	c-0.907,0.18-1.83,0.4-2.51,0.813c-0.342,0.203-0.571,0.449-0.669,0.701c-0.058,0.113-0.063,0.291-0.07,0.398
	c0.014,0.292,0.032,0.358,0.084,0.581c0.188,0.78,0.655,1.578,1.208,2.284c0.554,0.716,1.224,1.354,1.944,1.928
	c1.439,1.159,3.147,1.975,4.946,2.463c1.799,0.482,3.719,0.512,5.653,0.449c1.93-0.037,3.854-0.29,5.754-0.742
	c-1.8,0.777-3.745,1.188-5.693,1.475c-0.978,0.125-1.966,0.205-2.958,0.23c-1.008,0.023-2.022-0.077-3.019-0.271
	c-1.997-0.392-3.898-1.26-5.549-2.478c-0.823-0.614-1.574-1.33-2.228-2.144c-0.645-0.818-1.225-1.722-1.514-2.838
	c-0.069-0.25-0.117-0.668-0.117-0.863c0.002-0.377,0.043-0.693,0.185-1.028c0.271-0.657,0.794-1.112,1.287-1.398
	c1.01-0.574,2.026-0.788,3.026-0.954c2.003-0.291,3.97-0.342,5.931-0.32C117.338,105.613,121.27,105.699,125.121,106.451z"/>
<ellipse fill="#FFFFFF" cx="113.7" cy="109.877" rx="6.894" ry="2.018"/>
<path fill="#D8D8D8" d="M102.402,155.287c0.8,0.826,1.651,1.587,2.564,2.264c0.896,0.696,1.838,1.327,2.825,1.868
	c1.97,1.086,4.081,1.896,6.278,2.284c2.193,0.416,4.453,0.396,6.678,0.068c1.116-0.158,2.22-0.42,3.307-0.748
	c1.099-0.299,2.167-0.707,3.241-1.119c-1.956,1.213-4.123,2.117-6.405,2.623c-2.279,0.523-4.681,0.576-7,0.158
	c-2.315-0.434-4.543-1.322-6.494-2.611C105.447,158.794,103.693,157.203,102.402,155.287z"/>
<linearGradient id="SVGID_12_" gradientUnits="userSpaceOnUse" x1="347.3408" y1="-134.6724" x2="329.9496" y2="-137.0596" gradientTransform="matrix(1 0 0 -1 -181 -20)">
	<stop  offset="0" style="stop-color:#F3F3F3"/>
	<stop  offset="1" style="stop-color:#FFFFFF"/>
</linearGradient>
<ellipse fill="url(#SVGID_12_)" cx="160.525" cy="115.471" rx="12.106" ry="7.332"/>
<linearGradient id="SVGID_13_" gradientUnits="userSpaceOnUse" x1="258.7412" y1="-129.2061" x2="269.995" y2="-141.1418" gradientTransform="matrix(1 0 0 -1 -181 -20)">
	<stop  offset="0" style="stop-color:#FAFAFA"/>
	<stop  offset="0.8025" style="stop-color:#FCFCFC"/>
	<stop  offset="1" style="stop-color:#FFFFFF"/>
</linearGradient>
<ellipse fill="url(#SVGID_13_)" cx="83.968" cy="115.811" rx="12.106" ry="7.332"/>
</svg>
